<svg width="16" height="16" viewBox="0 0 16 16" fill="none" xmlns="http://www.w3.org/2000/svg">
<path fill-rule="evenodd" clip-rule="evenodd" d="M8 0C8.23575 0 8.46184 0.0936507 8.62854 0.26035C8.79524 0.427049 8.88889 0.653141 8.88889 0.888889V8C8.88889 8.23575 8.79524 8.46184 8.62854 8.62854C8.46184 8.79524 8.23575 8.88889 8 8.88889H0.888889C0.653141 8.88889 0.427049 8.79524 0.26035 8.62854C0.0936507 8.46184 0 8.23575 0 8C0 7.76425 0.0936507 7.53816 0.26035 7.37146C0.427049 7.20476 0.653141 7.11111 0.888889 7.11111H7.11111V0.888889C7.11111 0.653141 7.20476 0.427049 7.37146 0.26035C7.53816 0.0936507 7.76425 0 8 0Z" fill="#222222"/>
<path fill-rule="evenodd" clip-rule="evenodd" d="M7.11108 7.99997C7.11108 7.76422 7.20473 7.53813 7.37143 7.37143C7.53813 7.20473 7.76422 7.11108 7.99997 7.11108H15.1111C15.3468 7.11108 15.5729 7.20473 15.7396 7.37143C15.9063 7.53813 16 7.76422 16 7.99997C16 8.23572 15.9063 8.46181 15.7396 8.62851C15.5729 8.79521 15.3468 8.88886 15.1111 8.88886H8.88886V15.1111C8.88886 15.3468 8.79521 15.5729 8.62851 15.7396C8.46181 15.9063 8.23572 16 7.99997 16C7.76422 16 7.53813 15.9063 7.37143 15.7396C7.20473 15.5729 7.11108 15.3468 7.11108 15.1111V7.99997Z" fill="#222222"/>
</svg>
