<svg width="10" height="10" viewBox="0 0 10 10" fill="none" xmlns="http://www.w3.org/2000/svg">
<path fill-rule="evenodd" clip-rule="evenodd" d="M7.82432 2.03719L3.11036 6.46249C2.89369 6.66565 2.54091 6.66565 2.32424 6.46249C2.10757 6.25933 2.10757 5.92854 2.32424 5.72537L7.0382 1.30007C7.25487 1.09691 7.60765 1.09691 7.82432 1.30007C7.93266 1.40165 7.98821 1.53449 7.98821 1.66733C7.98821 1.80277 7.93266 1.93561 7.82432 2.03719ZM9.59374 1.4853L8.41316 0.38093C7.87149 -0.126977 6.99092 -0.126977 6.44925 0.38093L1.38806 5.13442C1.22972 5.28028 1.11305 5.4626 1.04361 5.66316L0.026926 8.70018C-0.109187 9.1013 0.293597 9.47897 0.721381 9.35395L3.96587 8.39804C4.17699 8.33553 4.37144 8.22614 4.52977 8.07767L9.59374 3.32419C10.1354 2.81628 10.1354 1.99321 9.59374 1.4853Z" fill="white"/>
</svg>
