<svg width="30" height="30" viewBox="0 0 30 30" fill="none" xmlns="http://www.w3.org/2000/svg">
<path fill-rule="evenodd" clip-rule="evenodd" d="M23.75 12.5C23.75 17.3325 19.8325 21.25 15 21.25C10.1675 21.25 6.25 17.3325 6.25 12.5C6.25 7.66751 10.1675 3.75 15 3.75C19.8325 3.75 23.75 7.66751 23.75 12.5ZM17.5 12.5C17.5 13.8807 16.3807 15 15 15C13.6193 15 12.5 13.8807 12.5 12.5C12.5 11.1193 13.6193 10 15 10C16.3807 10 17.5 11.1193 17.5 12.5Z" fill="#363636"/>
<path fill-rule="evenodd" clip-rule="evenodd" d="M15 26.25L18.125 20H11.875L15 26.25Z" fill="#363636"/>
</svg>
