<svg width="8" height="8" viewBox="0 0 8 8" fill="none" xmlns="http://www.w3.org/2000/svg">
<path d="M2.27392 1.56266L2.69564 3.01013L4.02855 3.02194C4.20112 3.02343 4.27268 3.2756 4.13382 3.3929L3.06159 4.29927L3.46361 5.75408C3.51563 5.94245 3.32832 6.09819 3.18791 5.98335L2.10355 5.09603L1.01918 5.9833C0.878775 6.09819 0.691466 5.94234 0.74348 5.75402L1.14551 4.29921L0.0732681 3.3929C-0.0655848 3.27554 0.00597129 3.02343 0.178548 3.02194L1.51145 3.01013L1.93317 1.56266C1.98779 1.37526 2.21935 1.37526 2.27392 1.56266Z" fill="#FFE15A"/>
<path d="M7.114 1.91932L7.41641 2.39129L7.90442 2.21657C7.96761 2.19397 8.01957 2.27645 7.98089 2.33789L7.68214 2.8129L7.97808 3.2902C8.01641 3.35198 7.96395 3.43407 7.90091 3.41095L7.4139 3.2325L7.10878 3.70223C7.0693 3.76304 6.98486 3.73126 6.98461 3.65554L6.98236 3.07016L6.4978 2.88311C6.43507 2.85884 6.43537 2.7572 6.49825 2.73345L6.98381 2.55012L6.98952 1.96481C6.99023 1.88926 7.07486 1.85823 7.114 1.91932Z" fill="#FFE15A"/>
<path d="M5.27297 0.512298L5.78128 0.57551L5.99816 0.0454314C6.02627 -0.0231732 6.11451 -0.0114141 6.12799 0.0627546L6.23252 0.635683L6.73992 0.707959C6.80562 0.717309 6.8231 0.817003 6.76563 0.85469L6.32191 1.14551L6.41867 1.72028C6.4312 1.79473 6.35378 1.84452 6.30472 1.79364L5.92595 1.40043L5.47837 1.68334C5.42045 1.71999 5.35505 1.65104 5.38221 1.58192L5.59182 1.048L5.21841 0.648073C5.17015 0.596562 5.20718 0.504153 5.27297 0.512298Z" fill="#FFE15A"/>
<path d="M6.07649 6.18502L5.77413 6.65711L5.28611 6.48238C5.22293 6.45978 5.17096 6.54221 5.20965 6.6037L5.5084 7.07872L5.21245 7.55602C5.17412 7.6178 5.22658 7.69988 5.28962 7.67677L5.77658 7.49832L6.0817 7.96805C6.12118 8.02885 6.20562 7.99708 6.20587 7.92136L6.20812 7.33598L6.69268 7.14893C6.75542 7.12466 6.75512 7.02302 6.69223 6.99927L6.20667 6.81594L6.20096 6.23062C6.20016 6.15496 6.11562 6.12387 6.07649 6.18502Z" fill="#FFE15A"/>
<path d="M7.91754 4.86254L7.40918 4.92575L7.1923 4.39567C7.16419 4.32707 7.076 4.33883 7.06247 4.413L6.95789 4.98593L6.45049 5.0582C6.38479 5.06755 6.36731 5.16725 6.42478 5.20493L6.8685 5.49576L6.77174 6.07052C6.75921 6.14497 6.83663 6.19476 6.88569 6.14388L7.26446 5.75067L7.71204 6.03358C7.76996 6.07023 7.83536 6.00128 7.8082 5.93216L7.59859 5.39824L7.972 4.99832C8.02046 4.9468 7.98343 4.8544 7.91754 4.86254Z" fill="#FFE15A"/>
</svg>
