<svg width="24" height="24" viewBox="0 0 24 24" fill="none" xmlns="http://www.w3.org/2000/svg">
<path fill-rule="evenodd" clip-rule="evenodd" d="M7.00705 6.41036L6.39386 3.78241C6.26926 3.24839 5.79317 2.87061 5.24481 2.87061H3.17995C2.52831 2.87061 2.00004 3.39887 2.00004 4.05052C2.00004 4.70217 2.52831 5.23044 3.17995 5.23044H4.30851L5.8554 11.8438L6.55287 16.0286C6.64462 16.5791 7.16912 16.9479 7.71815 16.8481L19.087 14.781C19.4616 14.7129 19.765 14.438 19.8696 14.0719L21.6944 7.68508C21.877 7.04626 21.3973 6.41036 20.7329 6.41036H7.00705Z" fill="#363636"/>
<path fill-rule="evenodd" clip-rule="evenodd" d="M16 19.5C16 20.3284 16.6716 21 17.5 21C18.3284 21 19 20.3284 19 19.5C19 18.6716 18.3284 18 17.5 18C16.6716 18 16 18.6716 16 19.5ZM7 19.5C7 20.3284 7.67157 21 8.5 21C9.32843 21 10 20.3284 10 19.5C10 18.6716 9.32843 18 8.5 18C7.67157 18 7 18.6716 7 19.5Z" fill="#363636"/>
</svg>
