<svg width="9" height="10" viewBox="0 0 9 10" fill="none" xmlns="http://www.w3.org/2000/svg">
<path d="M8.66771 4.0575C8.61685 4.00917 8.42484 3.8025 8.24598 3.6325C7.19737 2.56333 4.46186 0.813333 3.0301 0.279167C2.81266 0.193333 2.26293 0.0116667 1.96922 0C1.68777 0 1.41948 0.06 1.16347 0.181667C0.844326 0.351667 0.58831 0.619167 0.448028 0.935C0.357721 1.15417 0.217439 1.81 0.217439 1.82167C0.0771561 2.53917 0 3.705 0 4.99333C0 6.22083 0.0771561 7.33917 0.192012 8.0675C0.205164 8.07917 0.345446 8.89417 0.49888 9.17333C0.780322 9.68333 1.33005 10 1.91836 10H1.96922C2.35236 9.9875 3.15811 9.67083 3.15811 9.65917C4.51271 9.12417 7.1851 7.46 8.25913 6.35417C8.25913 6.35417 8.56162 6.07 8.69313 5.8925C8.8983 5.6375 9 5.32167 9 5.00583C9 4.65333 8.88514 4.325 8.66771 4.0575Z" fill="#545454"/>
</svg>
