<svg width="20" height="20" viewBox="0 0 20 20" fill="none" xmlns="http://www.w3.org/2000/svg">
<path fill-rule="evenodd" clip-rule="evenodd" d="M9.99449 9.02919L9.69941 9.03046C8.52901 9.0406 7.48478 9.11115 6.82302 9.23283C6.81109 9.23283 6.15476 9.36555 5.93629 9.4501C5.62052 9.58282 5.35249 9.82282 5.18267 10.1237C5.0615 10.3646 5 10.6174 5 10.8819C5.00964 11.0899 5.11428 11.4328 5.20202 11.6776L5.27997 11.881C5.81513 13.2282 7.5638 15.8037 8.63319 16.79L8.70794 16.8627L9.0582 17.1873C9.32623 17.3918 9.65394 17.5 10.0064 17.5C10.3222 17.5 10.638 17.4036 10.8932 17.2109C10.9758 17.1532 11.0819 17.0603 11.1715 16.9776L11.5022 16.6617C12.6036 15.5746 14.1485 13.221 14.6604 12.001C14.6714 12.001 14.9881 11.2428 15 10.8819L15 10.8337C15 10.2801 14.6842 9.76282 14.1739 9.49828C14.0343 9.42601 13.761 9.35669 13.521 9.30396L13.0677 9.20919C12.3389 9.10101 11.2209 9.02919 9.99449 9.02919ZM11.2653 3.75271C11.2653 3.0609 10.6989 2.5 10.0004 2.5C9.30182 2.5 8.73545 3.0609 8.73545 3.75271L9.00808 6.8354C9.00808 7.37812 9.45144 7.81812 10.0004 7.81812C10.5484 7.81812 10.9927 7.37812 10.9927 6.8354L11.2653 3.75271Z" fill="#28B4BE"/>
</svg>
