<svg width="9" height="10" viewBox="0 0 9 10" fill="none" xmlns="http://www.w3.org/2000/svg">
<path d="M0.332294 4.0575C0.383147 4.00917 0.575158 3.8025 0.754018 3.6325C1.80263 2.56333 4.53814 0.813333 5.9699 0.279167C6.18734 0.193333 6.73707 0.0116667 7.03078 0C7.31223 0 7.58052 0.06 7.83653 0.181667C8.15567 0.351667 8.41169 0.619167 8.55197 0.935C8.64228 1.15417 8.78256 1.81 8.78256 1.82167C8.92284 2.53917 9 3.705 9 4.99333C9 6.22083 8.92284 7.33917 8.80799 8.0675C8.79484 8.07917 8.65455 8.89417 8.50112 9.17333C8.21968 9.68333 7.66995 10 7.08164 10H7.03078C6.64764 9.9875 5.84189 9.67083 5.84189 9.65917C4.48729 9.12417 1.8149 7.46 0.740867 6.35417C0.740867 6.35417 0.438383 6.07 0.306868 5.8925C0.101705 5.6375 0 5.32167 0 5.00583C0 4.65333 0.114856 4.325 0.332294 4.0575Z" fill="#545454"/>
</svg>
