<svg width="79" height="80" viewBox="0 0 79 80" fill="none" xmlns="http://www.w3.org/2000/svg">
<path d="M43.415 13.6998L46.4541 10.6607C52.4221 4.69271 62.1381 4.545 68.1405 10.4786C70.4148 12.732 71.9264 15.6412 72.4625 18.7976C72.9987 21.954 72.5325 25.1991 71.1296 28.077C70.4567 29.4518 70.23 31.0024 70.4809 32.5122C70.7322 34.0221 71.4485 35.4158 72.5301 36.4987C74.5192 34.5051 76.0956 32.1392 77.1699 29.5361C78.2441 26.9329 78.7951 24.1436 78.7912 21.3275C78.7869 18.5115 78.2285 15.7238 77.1468 13.1237C76.0651 10.5236 74.4817 8.16214 72.4872 6.17416C64.094 -2.17174 50.4702 -2.00566 42.1004 6.36369L13.1326 35.3307L10.7512 32.9493C4.682 26.8801 4.64331 16.9593 10.8196 10.998C13.1058 8.79814 16.0184 7.36209 19.1555 6.88808C22.2927 6.41406 25.4995 6.92544 28.3336 8.35159C29.6272 9.01447 31.0971 9.2516 32.5335 9.02913C33.9699 8.80665 35.2993 8.13596 36.3317 7.11282L36.4056 7.03935C36.4286 7.01653 36.4468 6.98937 36.4592 6.95943C36.4717 6.92954 36.4781 6.89746 36.4781 6.86506C36.4781 6.83267 36.4717 6.80058 36.4592 6.77069C36.4468 6.74079 36.4286 6.71363 36.4056 6.69077C32.4186 2.80392 27.0758 0.620689 21.5077 0.603037C15.9396 0.58539 10.583 2.73471 6.57142 6.5962C-2.06992 14.9382 -2.03904 28.8101 6.45419 37.3034L35.4134 66.2626L32.3372 69.3388C26.3692 75.3068 16.6528 75.4545 10.6508 69.5209C8.3764 67.2677 6.86498 64.3583 6.32879 61.202C5.79264 58.0456 6.2586 54.8006 7.66131 51.9225C8.33428 50.5477 8.56108 48.9971 8.31009 47.4875C8.05905 45.9775 7.34271 44.5836 6.26114 43.5008C4.27219 45.4945 2.69553 47.8603 1.62122 50.4633C0.546917 53.0667 -0.00397035 55.8557 2.15401e-05 58.672C0.00401344 61.488 0.562807 64.2758 1.64449 66.8757C2.72617 69.476 4.30955 71.8374 6.30413 73.8253C14.6969 82.1716 28.3211 82.006 36.6909 73.6362L65.6962 44.6305L68.0866 47.0209C74.0546 52.9889 74.2023 62.7049 68.2687 68.7069C66.0154 70.9816 63.1061 72.4928 59.9497 73.0293C56.7934 73.5655 53.5484 73.0993 50.6703 71.6964C49.2951 71.0231 47.7437 70.796 46.2333 71.0477C44.723 71.2989 43.3287 72.016 42.2458 73.0985C44.2396 75.0876 46.6054 76.6644 49.2083 77.7386C51.8117 78.8129 54.6007 79.3639 57.4171 79.36C60.233 79.3557 63.0209 78.7969 65.6207 77.7152C68.221 76.6335 70.5825 75.05 72.5704 73.0555C80.9167 64.6627 80.7506 51.0385 72.3812 42.6692L43.415 13.6998ZM39.7378 61.9362L17.4582 39.6567L39.0891 18.0262L61.3687 40.3057L39.7378 61.9362Z" fill="#363636"/>
</svg>
