<svg width="20" height="20" viewBox="0 0 20 20" fill="none" xmlns="http://www.w3.org/2000/svg">
<path d="M1.75781 15.3125H11.7578C11.9461 15.3125 12.1229 15.2221 12.2333 15.0693C12.3432 14.9159 12.3735 14.7197 12.3134 14.5411L7.62648 0.401133C7.54695 0.161367 7.32266 0 7.07031 0H1.75781C0.788516 0 0 0.788516 0 1.75781V13.5547C0 14.524 0.788516 15.3125 1.75781 15.3125ZM4.72656 4.76562C5.50992 4.76562 6.2452 5.07063 6.79852 5.62395C7.02684 5.8534 7.02684 6.22418 6.79793 6.45309C6.56906 6.68082 6.1977 6.68141 5.96879 6.4525C5.6375 6.12004 5.19633 5.9375 4.72656 5.9375C3.75727 5.9375 2.96875 6.72602 2.96875 7.69531C2.96875 8.66461 3.75727 9.45312 4.72656 9.45312C5.48945 9.45312 6.13375 8.9618 6.37645 8.28125H5.3125C4.98863 8.28125 4.72656 8.01918 4.72656 7.69531C4.72656 7.37145 4.98863 7.10938 5.3125 7.10938H7.07031C7.39418 7.10938 7.65625 7.37145 7.65625 7.69531C7.65625 9.31066 6.34191 10.625 4.72656 10.625C3.11121 10.625 1.79688 9.31066 1.79688 7.69531C1.79688 6.07996 3.11121 4.76562 4.72656 4.76562Z" fill="#909090"/>
<path d="M18.2421 4.76562H10.3123L13.426 14.1328C13.5641 14.5479 13.5396 15.0146 13.3589 15.4132L11.2791 20H18.2421C19.213 20 20 19.213 20 18.2422V6.52344C20 5.55262 19.213 4.76562 18.2421 4.76562ZM17.6171 10.5858H17.5474C17.3722 11.3663 16.8665 12.3002 16.0371 13.3724C16.4949 13.9063 16.8536 14.267 16.8597 14.2732C17.0884 14.5021 17.0883 14.873 16.8594 15.1018C16.745 15.2161 16.5951 15.2733 16.4452 15.2733C16.2953 15.2733 16.1454 15.2161 16.031 15.1017C16.0068 15.0775 15.695 14.7643 15.2785 14.2877C14.8517 14.771 14.5322 15.0858 14.5119 15.1056C14.3979 15.2175 14.2497 15.2733 14.1016 15.2733C13.9498 15.2733 13.798 15.2146 13.6833 15.0977C13.4567 14.8668 13.4602 14.4958 13.6912 14.2691C13.9444 14.0203 14.2331 13.7127 14.5259 13.373C14.3541 13.1501 14.1818 12.9148 14.0174 12.6731C13.8355 12.4055 13.9049 12.0411 14.1725 11.8591C14.44 11.6771 14.8044 11.7465 14.9864 12.0141C15.0819 12.1546 15.181 12.2931 15.2812 12.4285C15.7468 11.7966 16.1471 11.1398 16.3335 10.5858H12.9296C12.606 10.5858 12.3437 10.3234 12.3437 9.99984C12.3437 9.67625 12.606 9.41391 12.9296 9.41391H14.6875V8.82797C14.6875 8.50437 14.9498 8.24203 15.2734 8.24203C15.597 8.24203 15.8593 8.50437 15.8593 8.82797V9.41391H17.6171C17.9407 9.41391 18.2031 9.67625 18.2031 9.99984C18.2031 10.3234 17.9407 10.5858 17.6171 10.5858Z" fill="#909090"/>
<path d="M8.02136 16.4844C9.12883 19.8327 9.0375 19.8016 9.35941 19.9476C9.43793 19.9832 9.52012 20 9.60106 20C9.82395 20 10.037 19.8721 10.135 19.6559L11.5731 16.4844H8.02136Z" fill="#909090"/>
</svg>
