<svg width="20" height="20" viewBox="0 0 20 20" fill="none" xmlns="http://www.w3.org/2000/svg">
<path fill-rule="evenodd" clip-rule="evenodd" d="M10.0055 10.9708L10.3006 10.9695C11.471 10.9594 12.5152 10.8888 13.177 10.7672C13.1889 10.7672 13.8452 10.6344 14.0637 10.5499C14.3795 10.4172 14.6475 10.1772 14.8173 9.87627C14.9385 9.63537 15 9.38264 15 9.1181C14.9904 8.91015 14.8857 8.5672 14.798 8.32243L14.72 8.11902C14.1849 6.77177 12.4362 4.19634 11.3668 3.20999L11.2921 3.13727L10.9418 2.81272C10.6738 2.60818 10.3461 2.5 9.99357 2.5C9.6778 2.5 9.36203 2.59636 9.10685 2.78909C9.02417 2.84678 8.91811 2.93972 8.82849 3.02244L8.49782 3.33833C7.39643 4.42538 5.85153 6.77904 5.33964 7.99902C5.32862 7.99902 5.01193 8.7572 5 9.1181V9.16628C5 9.71991 5.31577 10.2372 5.82614 10.5017C5.96567 10.574 6.23898 10.6433 6.47903 10.696L6.93226 10.7908C7.6611 10.899 8.77914 10.9708 10.0055 10.9708ZM8.73472 16.2473C8.73472 16.9391 9.30108 17.5 9.99963 17.5C10.6982 17.5 11.2645 16.9391 11.2645 16.2473L10.9919 13.1646C10.9919 12.6219 10.5486 12.1819 9.99963 12.1819C9.45162 12.1819 9.00734 12.6219 9.00734 13.1646L8.73472 16.2473Z" fill="#F76F47"/>
</svg>
