<svg width="21" height="21" viewBox="0 0 21 21" fill="none" xmlns="http://www.w3.org/2000/svg">
<path fill-rule="evenodd" clip-rule="evenodd" d="M15.9991 6.9996C14.8942 6.9996 13.9992 6.10465 13.9992 4.99972C13.9992 3.89478 14.8942 2.99983 15.9991 2.99983C17.1041 2.99983 17.999 3.89478 17.999 4.99972C17.999 6.10465 17.1041 6.9996 15.9991 6.9996ZM13.9992 0C10.1344 0 6.9996 3.13482 6.9996 6.9996C6.9996 8.01455 7.21959 8.97949 7.60957 9.84944L0.729959 16.7291C0.239986 17.219 0 17.859 0 18.499C0 19.1389 0.239986 19.7789 0.729959 20.2689C1.7099 21.2438 3.28981 21.2438 4.26976 20.2689L5.3147 19.2189C5.59968 18.9339 5.59968 18.474 5.3147 18.189L5.3097 18.184C5.02472 17.899 5.02472 17.439 5.3097 17.149L7.24959 15.2141C7.53457 14.9292 7.99455 14.9292 8.28453 15.2141C8.56952 15.5041 9.02949 15.5041 9.31447 15.2141L11.1444 13.3892C12.0193 13.7792 12.9843 13.9992 13.9992 13.9992C17.864 13.9992 20.9988 10.8644 20.9988 6.9996C20.9988 3.13482 17.864 0 13.9992 0Z" fill="#909090"/>
</svg>
