<svg width="25" height="19" viewBox="0 0 25 19" fill="none" xmlns="http://www.w3.org/2000/svg">
<rect width="25" height="18.75" rx="2" fill="white"/>
<mask id="mask0_1_1172" style="mask-type:luminance" maskUnits="userSpaceOnUse" x="0" y="0" width="25" height="19">
<rect width="25" height="18.75" rx="2" fill="white"/>
</mask>
<g mask="url(#mask0_1_1172)">
<rect width="25" height="18.75" fill="#0A17A7"/>
</g>
<mask id="mask1_1_1172" style="mask-type:luminance" maskUnits="userSpaceOnUse" x="0" y="0" width="25" height="19">
<rect width="25" height="18.75" rx="2" fill="white"/>
</mask>
<g mask="url(#mask1_1_1172)">
<path d="M-1.14501 -1.79691L9.52374 5.75935V-1.25003H15.4762V5.75935L26.145 -1.79691L27.4763 0.276216L19.0412 6.24997H25V12.5H19.0412L27.4763 18.4744L26.145 20.5469L15.4762 12.9906V20H9.52374V12.9906L-1.14501 20.5469L-2.47627 18.4744L5.95874 12.5H-1.39043e-05V6.24997H5.95874L-2.47627 0.276216L-1.14501 -1.79691Z" fill="white"/>
</g>
<mask id="mask2_1_1172" style="mask-type:luminance" maskUnits="userSpaceOnUse" x="0" y="0" width="25" height="19">
<rect width="25" height="18.75" rx="2" fill="white"/>
</mask>
<g mask="url(#mask2_1_1172)">
<path d="M16.6675 5.93629L27.9763 -1.87497" stroke="#DB1F35" stroke-width="0.666667" stroke-linecap="round"/>
</g>
<mask id="mask3_1_1172" style="mask-type:luminance" maskUnits="userSpaceOnUse" x="0" y="0" width="25" height="19">
<rect width="25" height="18.75" rx="2" fill="white"/>
</mask>
<g mask="url(#mask3_1_1172)">
<path d="M17.8687 12.8413L28.0062 20.0163" stroke="#DB1F35" stroke-width="0.666667" stroke-linecap="round"/>
</g>
<mask id="mask4_1_1172" style="mask-type:luminance" maskUnits="userSpaceOnUse" x="0" y="0" width="25" height="19">
<rect width="25" height="18.75" rx="2" fill="white"/>
</mask>
<g mask="url(#mask4_1_1172)">
<path d="M7.14811 5.9162L-3.42627 -1.56631" stroke="#DB1F35" stroke-width="0.666667" stroke-linecap="round"/>
</g>
<mask id="mask5_1_1172" style="mask-type:luminance" maskUnits="userSpaceOnUse" x="0" y="0" width="25" height="19">
<rect width="25" height="18.75" rx="2" fill="white"/>
</mask>
<g mask="url(#mask5_1_1172)">
<path d="M8.29499 12.7544L-3.42627 20.9163" stroke="#DB1F35" stroke-width="0.666667" stroke-linecap="round"/>
</g>
<mask id="mask6_1_1172" style="mask-type:luminance" maskUnits="userSpaceOnUse" x="0" y="0" width="25" height="19">
<rect width="25" height="18.75" rx="2" fill="white"/>
</mask>
<g mask="url(#mask6_1_1172)">
<path d="M0 11.25H10.7144V18.75H14.2856V11.25H25V7.5H14.2856V0H10.7144V7.5H0V11.25Z" fill="#E6273E"/>
</g>
</svg>
