<svg width="20" height="20" viewBox="0 0 20 20" fill="none" xmlns="http://www.w3.org/2000/svg">
<path d="M0.909027 8.26485C0.758038 8.26485 0.604762 8.22599 0.462923 8.14826C0.0259702 7.90135 -0.129593 7.3481 0.11748 6.90915C0.268469 6.63938 0.433184 6.37647 0.60705 6.1227C0.890727 5.70891 1.45579 5.60374 1.87216 5.88723C2.28623 6.17071 2.39147 6.73769 2.10779 7.15148C1.96366 7.36181 1.8264 7.58128 1.70058 7.80533C1.53586 8.09796 1.22702 8.26485 0.909027 8.26485Z" fill="#909090"/>
<path d="M19.0917 13.0269C18.5884 13.0269 18.1812 12.62 18.1812 12.117C18.1812 7.26573 14.2303 3.31751 9.37582 3.31751C7.50675 3.31751 5.72234 3.89363 4.21473 4.98642C3.80981 5.28133 3.24017 5.18989 2.94506 4.78295C2.64994 4.37601 2.74145 3.80904 3.14866 3.51412C4.96968 2.195 7.12242 1.5 9.37582 1.5C15.2346 1.5 20 6.2621 20 12.117C20.0022 12.62 19.595 13.0269 19.0917 13.0269Z" fill="#909090"/>
<path d="M2.67058 15.9556C2.16728 15.9556 1.76007 15.5486 1.76007 15.0457V12.0394C1.76007 9.1222 3.38663 6.50453 6.00607 5.21284C6.45675 4.99108 7.00122 5.17397 7.22313 5.62435C7.44504 6.07473 7.26202 6.61883 6.81134 6.84059C4.81646 7.82594 3.5788 9.81719 3.5788 12.0394V15.0457C3.58109 15.5486 3.17388 15.9556 2.67058 15.9556Z" fill="#909090"/>
<path d="M16.0857 18.1365C15.5824 18.1365 15.1752 17.7295 15.1752 17.2266V12.0392C15.1752 8.84545 12.574 6.24607 9.3781 6.24607C8.8748 6.24607 8.46759 5.83913 8.46759 5.33617C8.46759 4.83321 8.8748 4.42627 9.3781 4.42627C13.5783 4.42627 16.9939 7.84182 16.9939 12.0369V17.2243C16.9939 17.7295 16.5867 18.1365 16.0857 18.1365Z" fill="#909090"/>
<path d="M10.5632 18.5C10.0599 18.5 9.65272 18.0931 9.65272 17.5901V12.828C9.65272 12.6771 9.52918 12.5514 9.37591 12.5514C9.22263 12.5514 9.09909 12.6749 9.09909 12.828V14.2523C9.09909 14.7553 8.69188 15.1622 8.18859 15.1622C7.68529 15.1622 7.27808 14.7553 7.27808 14.2523V12.828C7.27808 11.6735 8.21833 10.7339 9.37362 10.7339C10.5289 10.7339 11.4692 11.6735 11.4692 12.828V17.5901C11.4737 18.0931 11.0665 18.5 10.5632 18.5Z" fill="#909090"/>
<path d="M5.54161 17.7729C5.03832 17.7729 4.6311 17.366 4.6311 16.863V12.2518C4.6311 9.63639 6.75867 7.51025 9.37582 7.51025C10.9818 7.51025 12.4665 8.3127 13.3473 9.65697C13.6218 10.0776 13.5051 10.64 13.0842 10.9144C12.6633 11.1887 12.1005 11.0721 11.826 10.6515C11.2815 9.82157 10.3664 9.32776 9.37582 9.32776C7.76298 9.32776 6.44983 10.64 6.44983 12.2518V16.863C6.45212 17.366 6.04491 17.7729 5.54161 17.7729Z" fill="#909090"/>
<path d="M13.2146 17.2884C12.7113 17.2884 12.3041 16.8815 12.3041 16.3785V12.6155C12.3041 12.1125 12.7113 11.7056 13.2146 11.7056C13.7179 11.7056 14.1252 12.1125 14.1252 12.6155V16.3785C14.1229 16.8815 13.7157 17.2884 13.2146 17.2884Z" fill="#909090"/>
</svg>
