<svg width="20" height="20" viewBox="0 0 20 20" fill="none" xmlns="http://www.w3.org/2000/svg">
<path fill-rule="evenodd" clip-rule="evenodd" d="M3.75 5.8335C3.05964 5.8335 2.5 6.39314 2.5 7.0835C2.5 7.77385 3.05964 8.3335 3.75 8.3335H7.91667C8.60702 8.3335 9.16667 7.77385 9.16667 7.0835C9.16667 6.39314 8.60702 5.8335 7.91667 5.8335H3.75ZM11.25 12.5002C10.5596 12.5002 10 13.0598 10 13.7502C10 14.4405 10.5596 15.0002 11.25 15.0002H15.4167C16.107 15.0002 16.6667 14.4405 16.6667 13.7502C16.6667 13.0598 16.107 12.5002 15.4167 12.5002H11.25Z" fill="white"/>
<path fill-rule="evenodd" clip-rule="evenodd" d="M16.6667 6.6665C16.6667 8.04722 15.5474 9.1665 14.1667 9.1665C12.786 9.1665 11.6667 8.04722 11.6667 6.6665C11.6667 5.28579 12.786 4.1665 14.1667 4.1665C15.5474 4.1665 16.6667 5.28579 16.6667 6.6665ZM7.5 13.3332C7.5 14.7139 6.38071 15.8332 5 15.8332C3.61929 15.8332 2.5 14.7139 2.5 13.3332C2.5 11.9525 3.61929 10.8332 5 10.8332C6.38071 10.8332 7.5 11.9525 7.5 13.3332Z" fill="white"/>
</svg>
