<svg width="36" height="36" viewBox="0 0 36 36" fill="none" xmlns="http://www.w3.org/2000/svg">
<rect width="36" height="36" fill="#00F8BD"/>
<path d="M25.5915 15.4462C21.3204 11.3077 14.6777 11.3092 10.4083 15.4462C10.2478 15.6018 10.2446 15.8652 10.3999 16.0266L11.2253 16.8845C11.3733 17.0385 11.6115 17.0418 11.7653 16.8941C15.283 13.518 20.7163 13.5172 24.2347 16.8941C24.3886 17.0418 24.6267 17.0383 24.7747 16.8845L25.6002 16.0266C25.7552 15.8652 25.7521 15.6018 25.5915 15.4462ZM17.9999 20.4245C17.1477 20.4245 16.4571 21.148 16.4571 22.0408C16.4571 22.9336 17.1477 23.6571 17.9999 23.6571C18.8521 23.6571 19.5428 22.9336 19.5428 22.0408C19.5428 21.148 18.8521 20.4245 17.9999 20.4245ZM22.8857 18.3134C20.1071 15.7392 15.8896 15.7419 13.1141 18.3134C12.9478 18.4675 12.9425 18.7349 13.1004 18.8981L13.9306 19.7565C14.0753 19.906 14.3081 19.9161 14.4622 19.7767C16.486 17.9439 19.5184 17.948 21.5374 19.7767C21.6914 19.9161 21.9243 19.9063 22.069 19.7565L22.8992 18.8981C23.0574 18.7349 23.0518 18.4672 22.8857 18.3134Z" fill="white"/>
</svg>
