<svg width="22" height="17" viewBox="0 0 22 17" fill="none" xmlns="http://www.w3.org/2000/svg">
<path d="M19.9509 5.32902L13.7376 11.7946C12.4348 13.1483 11.1369 14.5019 9.8414 15.8531C9.0128 16.7156 7.60246 16.7156 6.76897 15.8531C6.51476 15.5859 6.26056 15.3213 6.01125 15.0566C4.21227 13.1813 2.41818 11.3111 0.621648 9.43329C-0.236288 8.54272 -0.177625 7.1407 0.621648 6.2374C1.41359 5.33665 2.88992 5.40026 3.69409 6.2374C3.95073 6.50203 4.20494 6.76666 4.45425 7.03129C5.73993 8.36969 7.02561 9.71573 8.30641 11.0541C10.3425 8.93457 12.3737 6.82264 14.4073 4.70307L18.3034 0.647141C19.1614 -0.245978 20.5082 -0.18491 21.3759 0.647141C22.2387 1.47919 22.1776 3.01098 21.3734 3.84812C20.9017 4.33921 20.4226 4.83793 19.9509 5.32902Z" fill="#909090"/>
</svg>
