<svg width="10" height="10" viewBox="0 0 10 10" fill="none" xmlns="http://www.w3.org/2000/svg">
<path fill-rule="evenodd" clip-rule="evenodd" d="M7.82501 2.03724L3.11104 6.46255C2.89437 6.66572 2.54158 6.66572 2.32491 6.46255C2.10824 6.25939 2.10824 5.9286 2.32491 5.72544L7.03888 1.30012C7.25556 1.09696 7.60834 1.09696 7.82501 1.30012C7.93335 1.4017 7.9889 1.53454 7.9889 1.66738C7.9889 1.80282 7.93335 1.93566 7.82501 2.03724ZM9.59377 1.48531L8.41319 0.380931C7.87151 -0.126977 6.99094 -0.126977 6.44927 0.380931L1.38806 5.13443C1.22973 5.28029 1.11306 5.46262 1.04361 5.66318L0.0269261 8.70021C-0.109187 9.10133 0.293598 9.479 0.721383 9.35398L3.96589 8.39807C4.177 8.33556 4.37145 8.22616 4.52979 8.0777L9.59377 3.3242C10.1354 2.81629 10.1354 1.99321 9.59377 1.48531Z" fill="white"/>
</svg>
