<svg width="20" height="20" viewBox="0 0 20 20" fill="none" xmlns="http://www.w3.org/2000/svg">
<path d="M12.6 10.8571H13.6286V12.7909L15.3017 13.7577L14.7874 14.6491L12.6 13.3874V10.8571ZM18.0857 12.9143C18.0857 14.1873 17.58 15.4082 16.6798 16.3084C15.7797 17.2086 14.5588 17.7143 13.2857 17.7143C11.3726 17.7143 9.72 16.5897 8.94514 14.9714H4.37143C4.0077 14.9714 3.65887 14.8269 3.40168 14.5697C3.14449 14.3126 3 13.9637 3 13.6V5.37143C3 4.61029 3.61029 4 4.37143 4H15.3429C15.7066 4 16.0554 4.14449 16.3126 4.40168C16.5698 4.65887 16.7143 5.0077 16.7143 5.37143V9.55429C17.5646 10.4183 18.0857 11.6046 18.0857 12.9143ZM8.48571 12.9143C8.48571 11.5703 9.04114 10.3566 9.92571 9.48571H4.37143V13.6H8.53371C8.48571 13.3737 8.48571 13.1474 8.48571 12.9143ZM13.2857 9.48571C12.3764 9.48571 11.5043 9.84694 10.8613 10.4899C10.2184 11.1329 9.85714 12.005 9.85714 12.9143C9.85714 13.8236 10.2184 14.6957 10.8613 15.3387C11.5043 15.9816 12.3764 16.3429 13.2857 16.3429C14.195 16.3429 15.0671 15.9816 15.7101 15.3387C16.3531 14.6957 16.7143 13.8236 16.7143 12.9143C16.7143 12.005 16.3531 11.1329 15.7101 10.4899C15.0671 9.84694 14.195 9.48571 13.2857 9.48571ZM15.3429 6.74286V5.37143H4.37143V6.74286H15.3429Z" fill="#FF364A"/>
</svg>
