<svg width="20" height="20" viewBox="0 0 20 20" fill="none" xmlns="http://www.w3.org/2000/svg">
<path d="M16.1457 12.5859C16.6864 11.3012 16.8109 9.87925 16.5016 8.5201C16.1923 7.16094 15.4649 5.9329 14.4215 5.00861C13.3781 4.08433 12.0713 3.51029 10.6847 3.3672C9.2982 3.22412 7.90169 3.51918 6.69154 4.2109L5.86487 2.7634C7.12956 2.04058 8.5617 1.66204 10.0184 1.66555C11.475 1.66906 12.9053 2.0545 14.1665 2.7834C17.9082 4.9434 19.3415 9.5684 17.5974 13.4251L18.7157 14.0701L15.2449 15.9151L15.1074 11.9867L16.1457 12.5859ZM3.85404 7.41424C3.31332 8.69899 3.18886 10.1209 3.49813 11.48C3.80741 12.8392 4.53488 14.0672 5.57827 14.9915C6.62165 15.9158 7.92847 16.4898 9.31501 16.6329C10.7015 16.776 12.0981 16.481 13.3082 15.7892L14.1349 17.2367C12.8702 17.9596 11.438 18.3381 9.98137 18.3346C8.52469 18.3311 7.0944 17.9456 5.8332 17.2167C2.09154 15.0567 0.658203 10.4317 2.40237 6.57507L1.2832 5.9309L4.75404 4.0859L4.89154 8.01424L3.8532 7.41507L3.85404 7.41424ZM7.0832 11.6667H11.6665C11.777 11.6667 11.883 11.6228 11.9612 11.5447C12.0393 11.4666 12.0832 11.3606 12.0832 11.2501C12.0832 11.1396 12.0393 11.0336 11.9612 10.9554C11.883 10.8773 11.777 10.8334 11.6665 10.8334H8.3332C7.78067 10.8334 7.25077 10.6139 6.86006 10.2232C6.46936 9.83251 6.24987 9.3026 6.24987 8.75007C6.24987 8.19754 6.46936 7.66763 6.86006 7.27693C7.25077 6.88623 7.78067 6.66674 8.3332 6.66674H9.16654V5.8334H10.8332V6.66674H12.9165V8.3334H8.3332C8.2227 8.3334 8.11672 8.3773 8.03858 8.45544C7.96044 8.53358 7.91654 8.63956 7.91654 8.75007C7.91654 8.86058 7.96044 8.96656 8.03858 9.0447C8.11672 9.12284 8.2227 9.16674 8.3332 9.16674H11.6665C12.2191 9.16674 12.749 9.38623 13.1397 9.77693C13.5304 10.1676 13.7499 10.6975 13.7499 11.2501C13.7499 11.8026 13.5304 12.3325 13.1397 12.7232C12.749 13.1139 12.2191 13.3334 11.6665 13.3334H10.8332V14.1667H9.16654V13.3334H7.0832V11.6667Z" fill="#F04DF0"/>
</svg>
