<svg width="24" height="24" viewBox="0 0 24 24" fill="none" xmlns="http://www.w3.org/2000/svg">
<path d="M23.2951 12.2652C23.2951 11.4819 23.2316 10.6944 23.0961 9.92383H12.2275V14.361H18.4515C18.1932 15.7921 17.3633 17.0581 16.1482 17.8625V20.7416H19.8614C22.0419 18.7347 23.2951 15.7709 23.2951 12.2652Z" fill="#4285F4"/>
<path d="M12.2274 23.5232C15.3352 23.5232 17.956 22.5028 19.8655 20.7415L16.1523 17.8624C15.1192 18.5653 13.7855 18.9632 12.2317 18.9632C9.22555 18.9632 6.6767 16.9352 5.76216 14.2085H1.93042V17.1765C3.88651 21.0675 7.87068 23.5232 12.2274 23.5232Z" fill="#34A853"/>
<path d="M5.75796 14.2084C5.27528 12.7773 5.27528 11.2277 5.75796 9.79663V6.82861H1.93045C0.296134 10.0845 0.296134 13.9205 1.93045 17.1764L5.75796 14.2084Z" fill="#FBBC04"/>
<path d="M12.2274 5.03781C13.8702 5.01241 15.458 5.63057 16.6477 6.76527L19.9375 3.47548C17.8544 1.51938 15.0896 0.443956 12.2274 0.477827C7.87068 0.477827 3.88651 2.93353 1.93042 6.82878L5.75793 9.7968C6.66823 7.06589 9.22132 5.03781 12.2274 5.03781Z" fill="#EA4335"/>
</svg>
