<svg width="36" height="36" viewBox="0 0 36 36" fill="none" xmlns="http://www.w3.org/2000/svg">
<rect width="36" height="36" fill="#8C00F8"/>
<path d="M17.9996 17.4854C19.6084 17.4854 20.9137 16.3012 20.9137 14.8415C20.9137 13.7164 19.1804 11.4466 18.3881 10.465C18.1939 10.2259 17.8053 10.2259 17.611 10.465C16.8187 11.4466 15.0855 13.7164 15.0855 14.8415C15.0855 16.3012 16.3907 17.4854 17.9996 17.4854ZM26.4171 19.5133C26.059 19.2123 25.5004 19.232 25.124 19.5133L22.3192 21.5918C21.9761 21.8478 21.5481 21.9856 21.1049 21.9856H17.5139C17.2468 21.9856 17.0282 21.7831 17.0282 21.5356C17.0282 21.288 17.2468 21.0855 17.5139 21.0855H19.8907C20.3734 21.0855 20.8226 20.779 20.9016 20.3374C21.0017 19.7748 20.5343 19.2854 19.9423 19.2854H15.0855C14.2659 19.2854 13.4736 19.547 12.8361 20.0252L11.4246 21.0855H9.74289C9.47576 21.0855 9.2572 21.288 9.2572 21.5356V24.2357C9.2572 24.4832 9.47576 24.6857 9.74289 24.6857H20.5737C21.0139 24.6857 21.4419 24.5479 21.7879 24.2919L26.3777 20.8886C26.8391 20.5483 26.8755 19.8958 26.4171 19.5133Z" fill="white"/>
</svg>
