<svg width="20" height="20" viewBox="0 0 20 20" fill="none" xmlns="http://www.w3.org/2000/svg">
<path fill-rule="evenodd" clip-rule="evenodd" d="M9.99996 6.66667C9.54163 6.66667 9.16663 6.29167 9.16663 5.83333C9.16663 5.375 9.54163 5 9.99996 5C10.4583 5 10.8333 5.375 10.8333 5.83333C10.8333 6.29167 10.4583 6.66667 9.99996 6.66667ZM10.8333 14.1667C10.8333 14.625 10.4583 15 9.99996 15C9.54163 15 9.16663 14.625 9.16663 14.1667V8.75C9.16663 8.29167 9.54163 7.91667 9.99996 7.91667C10.4583 7.91667 10.8333 8.29167 10.8333 8.75V14.1667ZM10 0C4.47917 0 0 4.47917 0 10C0 15.5208 4.47917 20 10 20C15.5208 20 20 15.5208 20 10C20 4.47917 15.5208 0 10 0Z" fill="#909090"/>
</svg>
