<svg width="24" height="24" viewBox="0 0 24 24" fill="none" xmlns="http://www.w3.org/2000/svg">
<path fill-rule="evenodd" clip-rule="evenodd" d="M12 2C6.47715 2 2 6.47715 2 12C2 17.5228 6.47715 22 12 22C17.5228 22 22 17.5228 22 12C22 9.34784 20.9464 6.8043 19.0711 4.92893C17.1957 3.05357 14.6522 2 12 2ZM16.5457 10.0876L11.5457 15.0876C11.2207 15.4107 10.6957 15.4107 10.3707 15.0876L7.45405 12.1709C7.1709 11.8403 7.18994 11.3474 7.49774 11.0396C7.80555 10.7318 8.29841 10.7127 8.62905 10.9959L10.9582 13.3209L15.3707 8.91256C15.7013 8.62942 16.1942 8.64845 16.502 8.95626C16.8098 9.26407 16.8289 9.75693 16.5457 10.0876Z" fill="#B9B9B9"/>
</svg>
