<svg width="24" height="24" viewBox="0 0 24 24" fill="none" xmlns="http://www.w3.org/2000/svg">
<path d="M6.5975 10.6805C6.66342 10.6128 6.91232 10.3235 7.14418 10.0855C8.50349 8.58867 12.0495 6.13867 13.9055 5.39083C14.1874 5.27067 14.9 5.01633 15.2807 5C15.6456 5 15.9933 5.084 16.3252 5.25433C16.7389 5.49233 17.0708 5.86683 17.2526 6.309C17.3697 6.61583 17.5516 7.534 17.5516 7.55033C17.7334 8.55483 17.8334 10.187 17.8334 11.9907C17.8334 13.7092 17.7334 15.2748 17.5845 16.2945C17.5675 16.3108 17.3856 17.4518 17.1867 17.8427C16.8219 18.5567 16.1093 19 15.3466 19H15.2807C14.7841 18.9825 13.7396 18.5392 13.7396 18.5228C11.9836 17.7738 8.5194 15.444 7.12713 13.8958C7.12713 13.8958 6.73502 13.498 6.56454 13.2495C6.29859 12.8925 6.16675 12.4503 6.16675 12.0082C6.16675 11.5147 6.31564 11.055 6.5975 10.6805Z" fill="white"/>
</svg>
