<svg width="24" height="24" viewBox="0 0 24 24" fill="none" xmlns="http://www.w3.org/2000/svg">
<path d="M15.5 21L14 8H16.23L15.1 3.46L16.84 3L18.09 8H22L20.5 21H15.5ZM5 11H10C10.7956 11 11.5587 11.3161 12.1213 11.8787C12.6839 12.4413 13 13.2044 13 14H2C2 13.2044 2.31607 12.4413 2.87868 11.8787C3.44129 11.3161 4.20435 11 5 11ZM13 18C13 18.7956 12.6839 19.5587 12.1213 20.1213C11.5587 20.6839 10.7956 21 10 21H5C4.20435 21 3.44129 20.6839 2.87868 20.1213C2.31607 19.5587 2 18.7956 2 18H13ZM3 15H8L9.5 16.5L11 15H12C12.2652 15 12.5196 15.1054 12.7071 15.2929C12.8946 15.4804 13 15.7348 13 16C13 16.2652 12.8946 16.5196 12.7071 16.7071C12.5196 16.8946 12.2652 17 12 17H3C2.73478 17 2.48043 16.8946 2.29289 16.7071C2.10536 16.5196 2 16.2652 2 16C2 15.7348 2.10536 15.4804 2.29289 15.2929C2.48043 15.1054 2.73478 15 3 15Z" fill="#363636"/>
</svg>
