<svg width="14" height="10" viewBox="0 0 14 10" fill="none" xmlns="http://www.w3.org/2000/svg">
<path d="M12.0914 3.22971L8.32579 7.14823C7.53622 7.96864 6.74961 8.78905 5.96449 9.60792C5.4623 10.1307 4.60755 10.1307 4.1024 9.60792C3.94834 9.44599 3.79428 9.28561 3.64318 9.12523C2.55289 7.98869 1.46556 6.85523 0.376756 5.71715C-0.143205 5.1774 -0.107652 4.3277 0.376756 3.78024C0.856721 3.23433 1.75147 3.27289 2.23884 3.78024C2.39438 3.94063 2.54845 4.10101 2.69955 4.26139C3.47875 5.07254 4.25795 5.88832 5.03419 6.69948C6.26817 5.41489 7.49919 4.13493 8.73169 2.85035L11.093 0.392207C11.613 -0.149077 12.4292 -0.112066 12.9551 0.392207C13.478 0.89648 13.441 1.82484 12.9536 2.33219C12.6677 2.62982 12.3773 2.93208 12.0914 3.22971Z" fill="#363636"/>
</svg>
