<svg width="20" height="20" viewBox="0 0 20 20" fill="none" xmlns="http://www.w3.org/2000/svg">
<path fill-rule="evenodd" clip-rule="evenodd" d="M16 7.50002C16.3344 8.30189 16.515 8.36314 17.125 8.50002C17.8232 8.65627 18 9.14877 18 9.50002V10.5C18 10.8513 17.8232 11.3438 17.125 11.5C16.515 11.6369 16.3344 11.6981 16 12.5C15.6875 13.25 15.7644 13.4488 16.0988 13.9769C16.4813 14.5819 16.2588 15.0544 16.01 15.3032L15.3032 16.01C15.0544 16.2594 14.5813 16.4813 13.9775 16.0988C13.4488 15.7644 13.2738 15.6875 12.5 16C11.7506 16.3032 11.6369 16.515 11.5 17.125C11.3431 17.8232 10.8513 18 10.5 18H9.50002C9.14877 18 8.65627 17.8232 8.50002 17.125C8.36314 16.515 8.24939 16.3032 7.50002 16C6.72626 15.6875 6.55126 15.7644 6.02251 16.0994C5.41813 16.4819 4.94563 16.2594 4.69688 16.0107L3.99 15.3038C3.74125 15.055 3.51813 14.5813 3.90125 13.9775C4.23563 13.4488 4.3125 13.25 4 12.5C3.66563 11.6981 3.48501 11.6369 2.87501 11.5C2.17688 11.3438 2 10.8513 2 10.5V9.50002C2 9.14877 2.17688 8.65626 2.87501 8.50002C3.48499 8.36314 3.66563 8.30189 4 7.50002C4.3125 6.75001 4.23562 6.55126 3.90125 6.02251C3.51875 5.41875 3.74125 4.94563 3.98937 4.69688L4.69688 3.98937C4.94563 3.74125 5.41877 3.51875 6.02251 3.90125C6.55126 4.23563 6.72627 4.3125 7.50002 4C8.24939 3.6975 8.36314 3.48501 8.50002 2.87501C8.65627 2.17688 9.14877 2 9.50002 2H10.5C10.8513 2 11.3431 2.17688 11.5 2.87501C11.6369 3.48499 11.7506 3.6975 12.5 4C13.2738 4.3125 13.4488 4.23563 13.9775 3.90063C14.5819 3.51813 15.0544 3.74062 15.3032 3.98938L16.01 4.69626C16.2588 4.94501 16.4819 5.41877 16.0988 6.02251C15.7644 6.55126 15.6875 6.75002 16 7.50002ZM7.5 10C7.5 11.3806 8.61938 12.5 10 12.5C11.3806 12.5 12.5 11.3806 12.5 10C12.5 8.61938 11.3806 7.5 10 7.5C8.61938 7.5 7.5 8.61938 7.5 10Z" fill="#222222"/>
</svg>
