<svg width="20" height="20" viewBox="0 0 20 20" fill="none" xmlns="http://www.w3.org/2000/svg">
<path fill-rule="evenodd" clip-rule="evenodd" d="M4.47051 4.03785C6.05171 2.45596 8.19634 1.56738 10.4329 1.56738C12.6694 1.56738 14.8141 2.45596 16.3952 4.03785C17.9771 5.61905 18.8657 7.76368 18.8657 10.0002C18.8657 12.2367 17.9771 14.3814 16.3952 15.9625C14.814 17.5444 12.6694 18.433 10.4329 18.433C8.19634 18.433 6.05161 17.5444 4.47051 15.9625C2.88862 14.3813 2.00005 12.2367 2.00005 10.0002C2.00005 7.76368 2.88862 5.61895 4.47051 4.03785ZM12.9626 11.6864C13.3405 11.7062 13.6852 11.4722 13.8061 11.1133L13.8062 11.1133C13.8765 10.8951 13.8552 10.6579 13.7469 10.4555C13.6386 10.254 13.4528 10.1045 13.2322 10.0421H13.233L11.2764 9.39304V5.78419C11.2764 5.31855 10.8985 4.94066 10.4329 4.94066C9.96724 4.94066 9.58935 5.31855 9.58935 5.78419V10.0002C9.58856 10.363 9.8194 10.6856 10.1633 10.801L12.693 11.6445C12.7808 11.6706 12.8709 11.6841 12.9626 11.6864Z" fill="#222222"/>
</svg>
