<svg width="16" height="16" viewBox="0 0 16 16" fill="none" xmlns="http://www.w3.org/2000/svg">
<path fill-rule="evenodd" clip-rule="evenodd" d="M13.8147 4.92854C13.7347 5.04626 13.551 5.23609 13.551 5.23609C12.9009 5.97306 11.284 7.08306 10.4637 7.43953C10.4637 7.44699 9.97595 7.65838 9.74394 7.66667L9.71306 7.66667C9.35753 7.66667 9.02496 7.45528 8.85472 7.11539C8.78453 6.97528 8.71926 6.63447 8.68777 6.47005C8.67734 6.4156 8.67061 6.38049 8.66864 6.37843C8.59896 5.89265 8.55304 5.14739 8.55304 4.32919C8.55304 3.47036 8.59896 2.69278 8.68448 2.21446C8.68448 2.20617 8.7692 1.76929 8.82384 1.62339C8.90857 1.41283 9.06376 1.2346 9.25697 1.12103C9.41137 1.03979 9.57449 1 9.74394 1C9.9221 1.00746 10.2547 1.12932 10.3861 1.18569C11.2532 1.54215 12.9089 2.70853 13.5431 3.42145C13.6139 3.49551 13.688 3.57979 13.7395 3.63844C13.767 3.66973 13.7881 3.69372 13.7989 3.70497C13.9303 3.8832 14 4.10205 14 4.33748C14 4.54721 13.9382 4.75777 13.8147 4.92854ZM9.22548 12.4953C8.87628 12.4953 8.59359 12.1993 8.59359 11.8338C8.59359 11.4682 8.87628 11.1722 9.22548 11.1722L12.278 10.9899C12.723 10.9899 13.0833 11.3679 13.0833 11.8338C13.0833 12.2996 12.723 12.6768 12.278 12.6768L9.22548 12.4953ZM7.17626 14.5433C7.09074 14.7539 6.93633 14.9321 6.74312 15.0457C6.58871 15.1269 6.42559 15.1667 6.25535 15.1667C6.07798 15.1592 5.74461 15.0374 5.61316 14.9802C4.74689 14.6245 3.09115 13.4573 2.45609 12.7452C2.38704 12.6724 2.3144 12.5897 2.26303 12.5312L2.26295 12.5311L2.26289 12.5311C2.23422 12.4984 2.21218 12.4733 2.20112 12.4617C2.06967 12.2827 1.99999 12.0646 1.99999 11.83C1.99999 11.6187 2.06175 11.4081 2.18607 11.2382C2.26526 11.1204 2.44896 10.9306 2.44896 10.9306C3.09827 10.1928 4.71601 9.08363 5.53636 8.72717C5.53636 8.71888 6.02334 8.50832 6.25535 8.50003L6.28623 8.50003C6.64256 8.50003 6.97513 8.71059 7.14538 9.0513C7.21483 9.19113 7.28028 9.53085 7.31204 9.69564C7.32264 9.75067 7.32948 9.78619 7.33146 9.78826C7.40114 10.274 7.44707 11.0193 7.44707 11.8375C7.44707 12.6963 7.40114 13.4739 7.31562 13.9522C7.31562 13.9597 7.2309 14.3974 7.17626 14.5433ZM7.40631 4.33308C7.40631 3.9675 7.12363 3.67155 6.77443 3.67155L3.72194 3.48917C3.27694 3.48917 2.91666 3.86719 2.91666 4.33308C2.91666 4.79896 3.27694 5.17615 3.72194 5.17615L6.77443 4.9946C7.12363 4.9946 7.40631 4.69866 7.40631 4.33308Z" fill="white"/>
</svg>
