<svg width="24" height="18" viewBox="0 0 24 18" fill="none" xmlns="http://www.w3.org/2000/svg">
<path d="M22.2026 0H1.79742C0.804703 0 0 0.921169 0 2.05756V15.9424C0 17.0788 0.804703 18 1.79742 18H22.2026C23.1953 18 24 17.0788 24 15.9424V2.05756C24 0.921169 23.1953 0 22.2026 0Z" fill="#F5F5F5"/>
<path d="M14.2973 5.05768C12.3959 3.60662 9.82773 4.19988 8.56098 6.37265C7.92559 7.45716 8.18387 8.9308 9.13449 9.65633C10.0844 10.3819 11.3676 10.0872 12.0014 8.9989C12.6352 7.91063 13.9193 7.61964 14.8691 8.34136C15.8206 9.06688 16.0765 10.5405 15.4418 11.625C16.7094 9.44867 16.197 6.50879 14.2973 5.05768Z" fill="#FF4B55"/>
<path d="M8.56092 6.3728C7.92553 7.45731 8.18381 8.93095 9.13443 9.65648C10.0844 10.382 11.3676 10.0874 12.0014 8.99905C12.6352 7.91078 13.9192 7.61979 14.8691 8.34151C15.8205 9.06703 16.0764 10.5407 15.4417 11.6252C14.1758 13.8055 11.6085 14.3913 9.70715 12.9402C7.80749 11.4893 7.29337 8.54944 8.56092 6.3728Z" fill="#41479B"/>
<path d="M16.4024 3.2685L17.1541 4.5618C17.2172 4.67046 17.1917 4.81717 17.0969 4.88977L16.9063 5.03588C16.8112 5.10875 16.6825 5.07945 16.619 4.97042L15.8665 3.67744C15.8031 3.56867 15.8288 3.4217 15.9238 3.3491L16.1153 3.20272C16.2105 3.13001 16.3391 3.15952 16.4024 3.2685Z" fill="#686868"/>
<path d="M17.5622 5.26243L18.3162 6.55492C18.3799 6.66406 18.3539 6.81173 18.2583 6.88407L18.0668 7.02889C17.9718 7.10079 17.844 7.07123 17.7807 6.96289L17.0271 5.67174C16.9636 5.56303 16.9891 5.41595 17.0841 5.34324L17.2751 5.19707C17.3701 5.12436 17.4986 5.15361 17.5622 5.26243Z" fill="#686868"/>
<path d="M17.2071 2.65372L19.121 5.94159C19.1844 6.05041 19.1586 6.19743 19.0636 6.26998L18.8713 6.41669C18.7762 6.48923 18.6477 6.45983 18.5844 6.35101L16.6698 3.06336C16.6064 2.95448 16.6322 2.80735 16.7274 2.7348L16.9202 2.58783C17.0154 2.51555 17.1437 2.5449 17.2071 2.65372Z" fill="#686868"/>
<path d="M18.0097 2.0398L18.763 3.33562C18.8265 3.44476 18.8004 3.59211 18.7049 3.66439L18.5133 3.80927C18.4182 3.88117 18.2903 3.8516 18.2271 3.74305L17.4733 2.44895C17.4098 2.34013 17.4356 2.19305 17.5306 2.12045L17.7228 1.97385C17.8178 1.9013 17.9464 1.93076 18.0097 2.0398Z" fill="#686868"/>
<path d="M19.1704 4.03814L19.9225 5.33127C19.9858 5.43998 19.9601 5.5868 19.8653 5.6594L19.6743 5.80557C19.5792 5.87833 19.4505 5.84898 19.3871 5.73994L18.635 4.44681C18.5717 4.33809 18.5973 4.19128 18.6922 4.11868L18.8832 3.97251C18.9783 3.8997 19.107 3.92899 19.1704 4.03814Z" fill="#686868"/>
<path d="M6.22107 11.0378L8.13469 14.3222C8.19807 14.4309 8.17247 14.578 8.07741 14.6506L7.88578 14.797C7.79072 14.8697 7.66224 14.8403 7.59877 14.7315L5.68515 11.4471C5.62172 11.3384 5.64736 11.1914 5.74243 11.1188L5.9341 10.9723C6.02911 10.8996 6.15764 10.929 6.22107 11.0378Z" fill="#686868"/>
<path d="M5.41784 11.6522L6.16916 12.9423C6.23248 13.051 6.20694 13.1977 6.11211 13.2704L5.92151 13.4165C5.8265 13.4893 5.69787 13.4601 5.63436 13.3512L4.88216 12.0615C4.81869 11.9527 4.84428 11.8056 4.93934 11.733L5.13087 11.5866C5.22589 11.514 5.35442 11.5434 5.41784 11.6522Z" fill="#686868"/>
<path d="M6.57899 13.647L7.33115 14.9403C7.39443 15.049 7.36879 15.1959 7.27387 15.2684L7.08271 15.4147C6.9876 15.4875 6.85902 15.4581 6.79555 15.3492L6.04293 14.0561C5.9796 13.9474 6.00524 13.8004 6.10021 13.7278L6.29183 13.5814C6.38699 13.5085 6.51557 13.538 6.57899 13.647Z" fill="#686868"/>
<path d="M4.61436 12.2662L6.52677 15.5507C6.5901 15.6594 6.56445 15.8064 6.46963 15.879L6.27852 16.0253C6.18345 16.098 6.05488 16.0687 5.99141 15.9598L4.07788 12.6758C4.01446 12.5669 4.04019 12.4199 4.13525 12.3473L4.32753 12.2006C4.4225 12.128 4.55099 12.1574 4.61436 12.2662Z" fill="#686868"/>
<path d="M5.68579 6.55515L7.59913 3.26815C7.66255 3.15922 7.79108 3.12982 7.88619 3.20247L8.07777 3.34891C8.17279 3.42151 8.19838 3.56853 8.13505 3.6773L6.22096 6.96248C6.15768 7.07103 6.02966 7.10055 5.93465 7.02853L5.74382 6.88392C5.64829 6.81159 5.62232 6.66419 5.68579 6.55515Z" fill="#686868"/>
<path d="M4.8818 5.94176L6.79547 2.65411C6.85889 2.54518 6.98752 2.51578 7.08262 2.58854L7.27373 2.73481C7.36861 2.80741 7.3942 2.95428 7.33092 3.06299L5.41776 6.3508C5.35434 6.45973 5.22581 6.48919 5.1307 6.41648L4.93908 6.27005C4.84411 6.1975 4.81847 6.05053 4.8818 5.94176Z" fill="#686868"/>
<path d="M4.07763 5.33074L5.99149 2.03982C6.05491 1.93083 6.18358 1.90138 6.27869 1.97414L6.4698 2.12041C6.56463 2.19301 6.59027 2.33972 6.52708 2.44849L4.61439 5.73989C4.55106 5.84882 4.42249 5.87839 4.32738 5.80579L4.13519 5.65908C4.04008 5.58653 4.01439 5.43956 4.07763 5.33074Z" fill="#686868"/>
<path d="M15.8669 14.3222L16.6191 13.0325C16.6826 12.9236 16.8112 12.8944 16.9063 12.9672L17.0969 13.1132C17.1917 13.1859 17.2172 13.3327 17.1539 13.4414L16.4025 14.7314C16.3391 14.8403 16.2106 14.8697 16.1155 14.797L15.924 14.6506C15.829 14.578 15.8034 14.431 15.8669 14.3222Z" fill="#686868"/>
<path d="M17.0268 12.3343L17.7803 11.0383C17.8436 10.9293 17.9722 10.8998 18.0673 10.9724L18.2593 11.1189C18.3544 11.1915 18.3801 11.3387 18.3166 11.4475L17.5616 12.7416C17.4983 12.8501 17.3703 12.8795 17.2752 12.8074L17.0848 12.6629C16.9894 12.5905 16.9635 12.4433 17.0268 12.3343Z" fill="#686868"/>
<path d="M16.6698 14.9399L17.4225 13.6468C17.4859 13.5379 17.6143 13.5085 17.7094 13.5811L17.9018 13.7279C17.9968 13.8005 18.0225 13.9474 17.9592 14.0563L17.207 15.3495C17.1437 15.4583 17.0153 15.4879 16.9202 15.4154L16.7273 15.2684C16.6322 15.1959 16.6064 15.0488 16.6698 14.9399Z" fill="#686868"/>
<path d="M17.8314 12.9418L18.5845 11.6518C18.648 11.5431 18.7763 11.5138 18.8713 11.5863L19.0636 11.733C19.1588 11.8056 19.1844 11.9528 19.1209 12.0617L18.3678 13.3518C18.3043 13.4605 18.176 13.4898 18.081 13.4173L17.8887 13.2706C17.7935 13.1979 17.7679 13.0507 17.8314 12.9418Z" fill="#686868"/>
<path d="M17.4738 15.5506L18.2273 14.2598C18.2906 14.1515 18.4184 14.122 18.5134 14.1938L18.7049 14.3387C18.8005 14.411 18.8265 14.5585 18.763 14.6677L18.01 15.9602C17.9466 16.069 17.8182 16.0984 17.7231 16.0259L17.531 15.8793C17.4358 15.8066 17.4102 15.6595 17.4738 15.5506Z" fill="#686868"/>
<path d="M18.6353 13.5591L19.3869 12.2667C19.4504 12.1578 19.579 12.1283 19.6741 12.2011L19.865 12.3472C19.9599 12.4198 19.9855 12.5668 19.9221 12.6755L19.1698 13.9662C19.1066 14.0748 18.9784 14.1042 18.8834 14.0321L18.6931 13.8878C18.5978 13.8154 18.5719 13.6681 18.6353 13.5591Z" fill="#686868"/>
</svg>
