<svg width="20" height="20" viewBox="0 0 20 20" fill="none" xmlns="http://www.w3.org/2000/svg">
<path d="M8.8 3.22861C9.00955 3.07989 9.26015 3 9.51711 3C9.77406 3 10.0247 3.07989 10.2342 3.22861L15.6736 7.08787C16.3494 7.56749 16.011 8.63269 15.1828 8.63455H3.85416C3.02319 8.63455 2.683 7.56842 3.36153 7.08787L8.8 3.22861ZM9.51757 6.65937C9.72304 6.65937 9.9201 6.57775 10.0654 6.43246C10.2107 6.28717 10.2923 6.09011 10.2923 5.88464C10.2923 5.67917 10.2107 5.48211 10.0654 5.33682C9.9201 5.19153 9.72304 5.10991 9.51757 5.10991C9.3121 5.10991 9.11504 5.19153 8.96975 5.33682C8.82446 5.48211 8.74284 5.67917 8.74284 5.88464C8.74284 6.09011 8.82446 6.28717 8.96975 6.43246C9.11504 6.57775 9.3121 6.65937 9.51757 6.65937Z" fill="#260EFE"/>
<path d="M4.40527 9.56396V13.2819H6.26426V9.56396H4.40527Z" fill="#260EFE"/>
<path d="M3.01123 16.2256C3.01123 15.113 3.91284 14.2114 5.02452 14.2114H14.0099C15.1225 14.2114 16.0242 15.113 16.0242 16.2256V16.5352C16.0242 16.6584 15.9752 16.7766 15.888 16.8638C15.8009 16.9509 15.6827 16.9999 15.5594 16.9999H3.47598C3.35272 16.9999 3.23451 16.9509 3.14735 16.8638C3.06019 16.7766 3.01123 16.6584 3.01123 16.5352V16.2256Z" fill="#260EFE"/>
<path d="M14.6297 9.56396V13.2819H12.7708V9.56396H14.6297Z" fill="#260EFE"/>
<path d="M11.8414 9.56396V13.2819H9.98242V9.56396H11.8414Z" fill="#260EFE"/>
<path d="M9.05284 9.56396V13.2819H7.19385V9.56396H9.05284Z" fill="#260EFE"/>
</svg>
