<svg width="24" height="18" viewBox="0 0 24 18" fill="none" xmlns="http://www.w3.org/2000/svg">
<path d="M1.79742 17.9998H8.00002V0H1.79742C0.804703 0 0 0.921166 0 2.05756V15.9423C0 17.0787 0.804703 17.9998 1.79742 17.9998Z" fill="#686868"/>
<rect x="8" y="0.00012207" width="8.00016" height="17.9999" fill="#FF4B55"/>
<path d="M22.2025 17.9998C23.1952 17.9998 24 17.0787 24 15.9423V2.05756C24 0.921219 23.1953 0 22.2025 0H16V17.9998H22.2025Z" fill="#73AF00"/>
<rect x="11.0401" y="8.55505" width="0.359953" height="0.15263" fill="#F5F5F5"/>
<path d="M13.0801 9.92856H10.9203L11.0403 9.65393H12.9601L13.0801 9.92856Z" fill="#F5F5F5"/>
<path d="M13.0801 7.73096H10.9203L11.0403 8.00569H12.9601L13.0801 7.73096Z" fill="#F5F5F5"/>
<path d="M12.5999 7.86824H11.4L11.64 7.59351H12.36L12.5999 7.86824Z" fill="#F5F5F5"/>
<rect x="11.0401" y="9.24194" width="0.359953" height="0.274735" fill="#F5F5F5"/>
<rect x="11.0401" y="8.82983" width="0.359953" height="0.274734" fill="#F5F5F5"/>
<rect x="11.0401" y="8.14294" width="0.359953" height="0.274734" fill="#F5F5F5"/>
<rect x="12.6003" y="9.24194" width="0.359955" height="0.274735" fill="#F5F5F5"/>
<rect x="12.6003" y="8.82983" width="0.359955" height="0.274734" fill="#F5F5F5"/>
<rect x="12.6003" y="8.14294" width="0.359955" height="0.274734" fill="#F5F5F5"/>
<rect x="12.6003" y="8.55505" width="0.359955" height="0.15263" fill="#F5F5F5"/>
<rect x="11.1602" y="7.04407" width="0.24" height="0.549417" fill="#F5F5F5"/>
<path d="M11.4002 6.90682H11.1602V6.76945C11.1602 6.69357 11.2139 6.63208 11.2802 6.63208C11.3465 6.63208 11.4002 6.69357 11.4002 6.76945V6.90682Z" fill="#F5F5F5"/>
<rect x="12.6003" y="7.04407" width="0.24" height="0.549417" fill="#F5F5F5"/>
<path d="M12.8403 6.90682H12.6003V6.76945C12.6003 6.69357 12.6541 6.63208 12.7203 6.63208C12.7866 6.63208 12.8403 6.69357 12.8403 6.76945V6.90682Z" fill="#F5F5F5"/>
<path d="M12.0001 8.14294C11.735 8.14294 11.5201 8.38892 11.5201 8.69236V9.51651H12.48V8.69236C12.48 8.38897 12.2652 8.14294 12.0001 8.14294Z" fill="#F5F5F5"/>
<path fill-rule="evenodd" clip-rule="evenodd" d="M10.6672 8.13591L11.5335 9.00836L11.4128 9.09775L11.0897 8.77242L10.6775 9.60252L10.2002 9.19047L10.6351 8.3146L10.5454 8.22429C10.542 8.22479 10.5388 8.22557 10.5355 8.22635C10.53 8.22765 10.5244 8.22896 10.5185 8.22896C10.4306 8.22896 10.3593 8.16746 10.3593 8.09159C10.3593 8.01572 10.4306 7.95422 10.5185 7.95422C10.6063 7.95422 10.6776 8.01572 10.6776 8.09159C10.6776 8.10731 10.6728 8.1218 10.6672 8.13591ZM10.3786 8.96665L10.7595 9.29542L10.9313 8.94926L10.5504 8.62049L10.3786 8.96665Z" fill="#F5F5F5"/>
<path fill-rule="evenodd" clip-rule="evenodd" d="M13.2413 8.77242L12.9183 9.09775L12.7975 9.00836L13.6638 8.13591C13.6582 8.12185 13.6534 8.10737 13.6534 8.09159C13.6534 8.01572 13.7247 7.95422 13.8126 7.95422C13.9005 7.95422 13.9717 8.01572 13.9717 8.09159C13.9717 8.16746 13.9005 8.22896 13.8126 8.22896C13.8066 8.22896 13.8011 8.22766 13.7956 8.22636C13.7923 8.22558 13.789 8.22479 13.7856 8.22429L13.6959 8.3146L14.1308 9.19047L13.6535 9.60252L13.2413 8.77242ZM13.7807 8.62049L13.3998 8.94926L13.5716 9.29542L13.9525 8.96665L13.7807 8.62049Z" fill="#F5F5F5"/>
<path d="M12.1359 6.79333C12.0982 6.78061 12.0645 6.75705 12.0433 6.71928C12.0291 6.694 12.0146 6.6653 12.0001 6.63208C11.9856 6.6653 11.9711 6.694 11.9569 6.71928C11.9356 6.75711 11.902 6.78066 11.8643 6.79333C11.6655 6.86035 11.5201 7.06956 11.5201 7.31881C11.5201 7.36651 11.5271 7.41202 11.5371 7.45618H12.4631C12.4731 7.41202 12.48 7.36651 12.48 7.31881C12.48 7.06951 12.3346 6.86035 12.1359 6.79333Z" fill="#F5F5F5"/>
<path d="M9.25038 8.81376C9.24429 8.72838 9.24035 8.64237 9.24035 8.55517C9.24035 8.37874 9.25432 8.20521 9.27907 8.03495C9.31366 8.06237 9.3499 8.09252 9.38754 8.12638C9.36996 8.26724 9.36026 8.41029 9.36026 8.55517C9.36026 8.6567 9.3648 8.75709 9.37338 8.85609L9.62702 8.94329C9.61118 8.81612 9.60021 8.68723 9.60021 8.55517C9.60021 8.48949 9.60363 8.42462 9.60818 8.35996C9.74065 8.52813 9.84518 8.73128 9.84518 8.95579C9.84518 8.96153 10.2302 8.30335 9.53023 7.57654L9.52521 7.88556L9.12209 7.88073C9.08576 7.8803 9.05379 7.90981 9.04746 7.95076C9.01681 8.14817 9.00031 8.35003 9.00031 8.55517C9.00031 8.6135 9.00166 8.67145 9.00415 8.72908L9.25038 8.81376Z" fill="#F5F5F5"/>
<path d="M10.3153 6.05395C10.3678 6.00764 10.3774 5.92141 10.3369 5.86131C10.2963 5.80122 10.221 5.79038 10.1686 5.83663C9.62554 6.31672 9.25288 6.9763 9.09149 7.71513L9.3388 7.71878C9.49443 7.06489 9.83123 6.48194 10.3153 6.05395Z" fill="#F5F5F5"/>
<path d="M10.1544 6.39653C9.89345 6.68908 9.69591 7.03341 9.56152 7.40742C9.63573 7.47723 9.69652 7.54774 9.74701 7.61787C9.86795 7.23651 10.0606 6.88639 10.3224 6.59293C10.3697 6.5398 10.3705 6.45288 10.3241 6.39873C10.2776 6.34432 10.2017 6.34341 10.1544 6.39653Z" fill="#F5F5F5"/>
<path d="M9.73732 10.3558C9.55938 10.0635 9.4234 9.73576 9.33898 9.3837L9.47848 9.44241C9.56562 9.76366 9.69785 10.0624 9.86717 10.3286L10.132 10.2732C9.98248 10.0604 9.85957 9.82221 9.76981 9.56496L9.92637 9.6308C10.0157 9.85537 10.1301 10.0618 10.2664 10.245L10.542 10.1872C10.4336 10.0606 10.3389 9.91804 10.2572 9.76425L10.0976 9.39873C10.0482 9.28583 9.96045 9.20126 9.85484 9.16504L9.47712 9.03508L9.38979 9.00508L9.26407 8.96178L9.01399 8.87577L8.88049 8.82983L8.96309 9.11358C8.98123 9.17588 9.01793 9.22788 9.06565 9.262C9.14201 9.67706 9.28362 10.0649 9.47815 10.4103L9.73732 10.3558Z" fill="#F5F5F5"/>
<path d="M14.4748 7.88556L14.4698 7.57654C13.7698 8.30335 14.1548 8.96153 14.1548 8.95579C14.1548 8.73128 14.2594 8.52813 14.3918 8.35996C14.3964 8.42462 14.3998 8.48955 14.3998 8.55517C14.3998 8.68728 14.3888 8.81617 14.373 8.94329L14.6266 8.85609C14.6352 8.75709 14.6398 8.65675 14.6398 8.55517C14.6398 8.41024 14.6301 8.26718 14.6125 8.12638C14.6501 8.09258 14.6864 8.06237 14.7209 8.03495C14.7457 8.20515 14.7597 8.3788 14.7597 8.55517C14.7597 8.64232 14.7557 8.72838 14.7496 8.81376L14.9958 8.72908C14.9983 8.67145 14.9996 8.6135 14.9996 8.55517C14.9996 8.35003 14.9831 8.14817 14.9525 7.95076C14.9461 7.90976 14.9141 7.8803 14.8778 7.88073L14.4748 7.88556Z" fill="#F5F5F5"/>
<path d="M14.6619 7.7188L14.9092 7.71515C14.7478 6.97632 14.3751 6.31674 13.8321 5.83665C13.7796 5.79035 13.7044 5.80124 13.6638 5.86134C13.6233 5.92144 13.6329 6.00772 13.6854 6.05397C14.1694 6.4819 14.5062 7.06486 14.6619 7.7188Z" fill="#F5F5F5"/>
<path d="M14.4388 7.40753C14.3043 7.03352 14.1068 6.68919 13.8459 6.39664C13.7985 6.34352 13.7227 6.34449 13.6762 6.39879C13.6298 6.45298 13.6307 6.53991 13.678 6.59298C13.9398 6.88644 14.1324 7.23651 14.2534 7.61792C14.3038 7.54784 14.3646 7.47728 14.4388 7.40753Z" fill="#F5F5F5"/>
<path d="M14.9865 8.87561L14.7364 8.96163L14.6107 9.00493L14.5234 9.03493L14.1456 9.16489C14.04 9.20116 13.9522 9.28573 13.9029 9.39858L13.7432 9.7641C13.6616 9.91789 13.5668 10.0605 13.4584 10.1871L13.734 10.2449C13.8704 10.0617 13.9848 9.85527 14.0741 9.63065L14.2307 9.56481C14.1408 9.82205 14.0179 10.0603 13.8685 10.273L14.1333 10.3285C14.3027 10.0622 14.4348 9.76351 14.522 9.44225L14.6615 9.38355C14.5771 9.73561 14.4411 10.0634 14.2631 10.3556L14.5223 10.4099C14.7168 10.0644 14.8584 9.67669 14.9348 9.26164C14.9825 9.22746 15.0192 9.17546 15.0374 9.11322L15.12 8.82947L14.9865 8.87561Z" fill="#F5F5F5"/>
<path fill-rule="evenodd" clip-rule="evenodd" d="M13.2444 10.4006L13.2506 10.3943C13.2959 10.3372 13.364 10.3117 13.43 10.327L14.6398 10.6154L14.3714 10.8848C14.2996 10.9568 14.2073 10.9904 14.1155 10.9842C13.8995 11.2305 13.6514 11.4399 13.3785 11.6025L13.4571 11.7686C13.0236 12.0384 12.5272 12.1918 12.0001 12.1918C11.4729 12.1918 10.9765 12.0384 10.543 11.7686L10.6216 11.6025C10.3488 11.4399 10.1006 11.2305 9.8846 10.9842C9.79287 10.9904 9.70062 10.9568 9.6288 10.8848L9.36035 10.6154L10.5702 10.327C10.6362 10.3117 10.7043 10.3373 10.7496 10.3943L10.7558 10.4006C11.1049 10.709 11.5385 10.8901 12.0001 10.8901C12.4618 10.8901 12.8953 10.709 13.2444 10.4006ZM10.1407 10.8786C10.3199 11.0668 10.519 11.2304 10.7365 11.36L10.7933 11.2398C10.5988 11.1242 10.4199 10.9799 10.2572 10.815L10.1407 10.8786ZM13.8597 10.8787C13.6806 11.0669 13.4814 11.2305 13.2639 11.3601L13.207 11.2399C13.4015 11.1244 13.5804 10.98 13.7432 10.8152L13.8597 10.8787ZM10.4925 10.6864C10.9048 11.0699 11.4285 11.302 12 11.302C12.5715 11.302 13.0952 11.07 13.5072 10.6864L13.3875 10.6211C12.9983 10.9643 12.5145 11.1647 11.9999 11.1647C11.4853 11.1647 11.0015 10.9643 10.6122 10.6211L10.4925 10.6864Z" fill="#F5F5F5"/>
<path d="M10.6836 10.1997C10.7351 10.2496 10.7885 10.2968 10.8442 10.3407H13.1562C13.2119 10.2967 13.2653 10.2496 13.3168 10.1997L13.2001 10.066H10.8004L10.6836 10.1997Z" fill="#F5F5F5"/>
</svg>
