<svg width="32" height="32" viewBox="0 0 32 32" fill="none" xmlns="http://www.w3.org/2000/svg">
<path d="M26.1964 14.1429H18.0714C17.3326 14.1429 16.6241 13.8494 16.1016 13.3269C15.5792 12.8045 15.2857 12.096 15.2857 11.3571V3.23214C15.2857 3.17057 15.2613 3.11153 15.2177 3.06799C15.1742 3.02446 15.1151 3 15.0536 3H9.71429C8.7292 3 7.78445 3.39133 7.08789 4.08789C6.39133 4.78445 6 5.7292 6 6.71429V25.2857C6 26.2708 6.39133 27.2155 7.08789 27.9121C7.78445 28.6087 8.7292 29 9.71429 29H22.7143C23.6994 29 24.6441 28.6087 25.3407 27.9121C26.0372 27.2155 26.4286 26.2708 26.4286 25.2857V14.375C26.4286 14.3134 26.4041 14.2544 26.3606 14.2108C26.317 14.1673 26.258 14.1429 26.1964 14.1429Z" fill="#909090"/>
<path d="M25.6868 12.0878L17.3407 3.74164C17.3245 3.7255 17.3039 3.71453 17.2814 3.71009C17.259 3.70565 17.2357 3.70795 17.2145 3.71669C17.1934 3.72544 17.1753 3.74024 17.1625 3.75924C17.1498 3.77824 17.1429 3.80058 17.1428 3.82347V11.3571C17.1428 11.6034 17.2407 11.8395 17.4148 12.0137C17.5889 12.1878 17.8251 12.2857 18.0714 12.2857H25.605C25.6279 12.2856 25.6502 12.2787 25.6692 12.2659C25.6882 12.2532 25.703 12.2351 25.7118 12.2139C25.7205 12.1928 25.7228 12.1695 25.7184 12.1471C25.714 12.1246 25.703 12.104 25.6868 12.0878Z" fill="#909090"/>
</svg>
