<svg width="12" height="12" viewBox="0 0 12 12" fill="none" xmlns="http://www.w3.org/2000/svg">
<path d="M6.65975 8.77847C6.69358 8.74457 6.83825 8.61656 6.95725 8.49732C7.70567 7.79825 8.93067 5.97457 9.30458 5.02007C9.36467 4.87511 9.49183 4.50862 9.5 4.31281C9.5 4.12518 9.458 3.94632 9.37283 3.77565C9.25383 3.56288 9.06658 3.39221 8.8455 3.29869C8.69208 3.23848 8.233 3.14496 8.22483 3.14496C7.72258 3.05144 6.9065 3 6.00467 3C5.14542 3 4.36258 3.05144 3.85275 3.12801C3.84458 3.13678 3.27408 3.2303 3.07867 3.33259C2.72167 3.52021 2.5 3.8867 2.5 4.27891L2.5 4.31281C2.50875 4.56824 2.73042 5.10541 2.73858 5.10541C3.11308 6.00848 4.278 7.79006 5.05208 8.50609C5.05208 8.50609 5.251 8.70774 5.37525 8.79542C5.55375 8.9322 5.77483 9 5.99592 9C6.24267 9 6.4725 8.92343 6.65975 8.77847Z" fill="#909090"/>
</svg>
