<svg width="20" height="20" viewBox="0 0 20 20" fill="none" xmlns="http://www.w3.org/2000/svg">
<path d="M18.2684 5.54977C17.7062 3.72653 16.1421 2.50076 14.3773 2.50076C13.2529 2.50076 12.1189 2.94673 11.2652 3.72509C10.5164 4.40729 10.0479 5.55364 10.0221 5.61724C10.0147 5.63844 10.0073 5.65813 9.99993 5.67479C9.99108 5.65434 9.98149 5.63011 9.9719 5.6021C9.95198 5.55364 9.48349 4.40729 8.73463 3.72433C7.88102 2.94597 6.74712 2.5 5.62258 2.5C3.85705 2.5 2.29445 3.72509 1.73218 5.54901C0.73765 8.77537 2.97607 12.7443 7.7185 16.1659C8.36036 16.6292 9.48402 17.3417 9.53198 17.3728C9.66109 17.4546 9.82709 17.5 9.99974 17.5C10.1724 17.5 10.3384 17.4546 10.4682 17.3728C10.5162 17.3425 11.6391 16.6293 12.281 16.1659C17.0241 12.7451 19.2619 8.77595 18.2681 5.54959L18.2684 5.54977Z" fill="#222222"/>
</svg>
