<svg width="36" height="36" viewBox="0 0 36 36" fill="none" xmlns="http://www.w3.org/2000/svg">
<rect width="36" height="36" fill="#F8EF00"/>
<path d="M19.0927 10.4143C19.0927 10.1074 18.9776 9.81307 18.7726 9.59606C18.5677 9.37905 18.2897 9.25714 17.9998 9.25714C17.71 9.25714 17.432 9.37905 17.2271 9.59606C17.0221 9.81307 16.907 10.1074 16.907 10.4143V11.5714C16.907 11.8783 17.0221 12.1726 17.2271 12.3897C17.432 12.6067 17.71 12.7286 17.9998 12.7286C18.2897 12.7286 18.5677 12.6067 18.7726 12.3897C18.9776 12.1726 19.0927 11.8783 19.0927 11.5714V10.4143Z" fill="white"/>
<path d="M24.1823 13.6045C24.3814 13.3863 24.4916 13.094 24.4891 12.7906C24.4866 12.4872 24.3717 12.197 24.169 11.9824C23.9664 11.7679 23.6923 11.6462 23.4058 11.6435C23.1192 11.6409 22.8432 11.7575 22.637 11.9683L21.8644 12.7864C21.6653 13.0047 21.5552 13.297 21.5577 13.6004C21.5601 13.9038 21.6751 14.194 21.8777 14.4085C22.0803 14.6231 22.3544 14.7448 22.641 14.7474C22.9275 14.75 23.2036 14.6334 23.4097 14.4226L24.1823 13.6045Z" fill="white"/>
<path d="M26.7427 18.5143C26.7427 18.8212 26.6275 19.1155 26.4226 19.3325C26.2176 19.5495 25.9397 19.6714 25.6498 19.6714H24.557C24.2671 19.6714 23.9892 19.5495 23.7842 19.3325C23.5793 19.1155 23.4641 18.8212 23.4641 18.5143C23.4641 18.2074 23.5793 17.9131 23.7842 17.6961C23.9892 17.4791 24.2671 17.3571 24.557 17.3571H25.6498C25.9397 17.3571 26.2176 17.4791 26.4226 17.6961C26.6275 17.9131 26.7427 18.2074 26.7427 18.5143Z" fill="white"/>
<path d="M12.5902 14.4226C12.691 14.5331 12.8116 14.6213 12.9449 14.6819C13.0782 14.7426 13.2216 14.7745 13.3668 14.7758C13.5119 14.7772 13.6558 14.7479 13.7901 14.6897C13.9244 14.6315 14.0464 14.5456 14.149 14.437C14.2516 14.3283 14.3328 14.1991 14.3877 14.0569C14.4427 13.9147 14.4703 13.7623 14.4691 13.6087C14.4678 13.455 14.4377 13.3032 14.3804 13.162C14.3231 13.0208 14.2398 12.8932 14.1355 12.7864L13.3628 11.9683C13.1567 11.7575 12.8806 11.6409 12.5941 11.6435C12.3076 11.6462 12.0335 11.7679 11.8308 11.9824C11.6282 12.197 11.5133 12.4872 11.5108 12.7906C11.5083 13.094 11.6184 13.3863 11.8175 13.6045L12.5902 14.4226Z" fill="white"/>
<path d="M12.5357 18.5143C12.5357 18.8212 12.4205 19.1155 12.2156 19.3325C12.0106 19.5495 11.7326 19.6714 11.4428 19.6714H10.3499C10.0601 19.6714 9.78212 19.5495 9.57717 19.3325C9.37222 19.1155 9.25708 18.8212 9.25708 18.5143C9.25708 18.2074 9.37222 17.9131 9.57717 17.6961C9.78212 17.4791 10.0601 17.3571 10.3499 17.3571H11.4428C11.7326 17.3571 12.0106 17.4791 12.2156 17.6961C12.4205 17.9131 12.5357 18.2074 12.5357 18.5143Z" fill="white"/>
<path d="M15.8142 25.4571V24.3H20.1856V25.4571C20.1856 26.0709 19.9554 26.6596 19.5455 27.0936C19.1356 27.5276 18.5796 27.7714 17.9999 27.7714C17.4202 27.7714 16.8643 27.5276 16.4544 27.0936C16.0445 26.6596 15.8142 26.0709 15.8142 25.4571Z" fill="white"/>
<path d="M20.1856 23.1429C20.202 22.7494 20.4129 22.3954 20.7069 22.1489C21.4201 21.5533 21.9405 20.7371 22.1955 19.814C22.4505 18.8908 22.4276 17.9064 22.1299 16.9977C21.8321 16.0889 21.2744 15.301 20.5343 14.7433C19.7941 14.1856 18.9083 13.886 17.9998 13.886C17.0914 13.886 16.2056 14.1856 15.4654 14.7433C14.7252 15.301 14.1675 16.0889 13.8698 16.9977C13.5721 17.9064 13.5492 18.8908 13.8042 19.814C14.0592 20.7371 14.5796 21.5533 15.2928 22.1489C15.5879 22.3954 15.7977 22.7494 15.813 23.1429H20.1867H20.1856Z" fill="white"/>
</svg>
