<svg width="20" height="20" viewBox="0 0 20 20" fill="none" xmlns="http://www.w3.org/2000/svg">
<path fill-rule="evenodd" clip-rule="evenodd" d="M10 0.5C4.486 0.5 0 5.15 0 10.866V15.5C0 17.706 1.794 19.5 4 19.5C6.206 19.5 8 17.706 8 15.5C8 13.294 6.206 11.5 4 11.5C3.268 11.5 2.591 11.712 2 12.057V10.866C2 6.253 5.589 2.5 10 2.5C14.411 2.5 18 6.253 18 10.866V12.057C17.409 11.712 16.732 11.5 16 11.5C13.794 11.5 12 13.294 12 15.5C12 17.706 13.794 19.5 16 19.5C18.206 19.5 20 17.706 20 15.5V10.866C20 5.15 15.514 0.5 10 0.5Z" fill="#909090"/>
</svg>
