<svg width="20" height="20" viewBox="0 0 20 20" fill="none" xmlns="http://www.w3.org/2000/svg">
<path d="M16.5385 14.6156L15.7227 13.7998L14.2308 15.2918V10.5771H13.077V15.2918L11.5851 13.7998L10.7693 14.6156L13.6539 17.5002L16.5385 14.6156Z" fill="#DFB000"/>
<path d="M6.15385 16.3462V5.96154H13.0769V8.84615H14.2308V3.65385C14.2305 3.34792 14.1088 3.05461 13.8925 2.83829C13.6762 2.62197 13.3828 2.50031 13.0769 2.5H6.15385C5.84792 2.50031 5.55461 2.62197 5.33829 2.83829C5.12197 3.05461 5.00031 3.34792 5 3.65385V16.3462C5.00031 16.6521 5.12197 16.9454 5.33829 17.1617C5.55461 17.378 5.84792 17.4997 6.15385 17.5H9.61538V16.3462H6.15385ZM6.15385 3.65385H13.0769V4.80769H6.15385V3.65385Z" fill="#DFB000"/>
</svg>
