<svg width="107" height="108" viewBox="0 0 107 108" fill="none" xmlns="http://www.w3.org/2000/svg">
<path d="M58.6103 18.4948L62.7131 14.392C70.7699 6.33516 83.8865 6.13574 91.9897 14.1461C95.0601 17.1882 97.1006 21.1156 97.8244 25.3768C98.5482 29.638 97.9189 34.0188 96.0249 37.904C95.1165 39.7599 94.8105 41.8532 95.1492 43.8915C95.4884 45.9298 96.4554 47.8114 97.9157 49.2733C100.601 46.5819 102.729 43.3879 104.179 39.8737C105.63 36.3594 106.373 32.5939 106.368 28.7922C106.362 24.9905 105.608 21.2271 104.148 17.717C102.688 14.2069 100.55 11.0189 97.8577 8.33512C86.5269 -2.93184 68.1347 -2.70763 56.8356 8.59098L17.7291 47.6965L14.5141 44.4815C6.3207 36.2881 6.26847 22.8951 14.6065 14.8472C17.6928 11.8775 21.6249 9.93883 25.86 9.29891C30.0951 8.65898 34.4244 9.34934 38.2504 11.2746C39.9967 12.1695 41.9811 12.4897 43.9203 12.1893C45.8594 11.889 47.654 10.9835 49.0478 9.6023L49.1475 9.50312C49.1786 9.47231 49.2031 9.43565 49.22 9.39524C49.2368 9.35488 49.2454 9.31157 49.2454 9.26783C49.2454 9.2241 49.2368 9.18079 49.22 9.14043C49.2031 9.10007 49.1786 9.06341 49.1475 9.03254C43.7651 3.7853 36.5523 0.83793 29.0353 0.814101C21.5184 0.790276 14.287 3.69186 8.87142 8.90488C-2.79439 20.1666 -2.7527 38.8937 8.71316 50.3596L47.8081 89.4545L43.6552 93.6074C35.5984 101.664 22.4813 101.864 14.3786 93.8532C11.3081 90.8113 9.26772 86.8837 8.54387 82.6226C7.82006 78.3616 8.44912 73.9808 10.3428 70.0953C11.2513 68.2394 11.5575 66.1461 11.2186 64.1081C10.8797 62.0697 9.91266 60.1879 8.45255 58.726C5.76745 61.4176 3.63896 64.6114 2.18865 68.1255C0.738339 71.64 -0.00535997 75.4052 2.90792e-05 79.2073C0.00541815 83.0088 0.759789 86.7724 2.22006 90.2822C3.68033 93.7925 5.81789 96.9806 8.51058 99.6642C19.8409 110.932 38.2335 110.708 49.5327 99.4089L88.6898 60.2512L91.9169 63.4782C99.9737 71.535 100.173 84.6516 92.1627 92.7543C89.1208 95.8252 85.1932 97.8653 80.9322 98.5896C76.6711 99.3134 72.2903 98.684 68.4048 96.7901C66.5484 95.8811 64.454 95.5746 62.415 95.9144C60.376 96.2536 58.4937 97.2216 57.0318 98.683C59.7234 101.368 62.9172 103.497 66.4313 104.947C69.9458 106.397 73.711 107.141 77.5131 107.136C81.3146 107.13 85.0782 106.376 88.588 104.916C92.0984 103.455 95.2864 101.318 97.97 98.6249C109.238 87.2947 109.013 68.902 97.7147 57.6034L58.6103 18.4948ZM53.646 83.6139L23.5686 53.5365L52.7703 24.3353L82.8477 54.4128L53.646 83.6139Z" fill="#363636"/>
</svg>
