<svg width="24" height="24" viewBox="0 0 24 24" fill="none" xmlns="http://www.w3.org/2000/svg">
<path fill-rule="evenodd" clip-rule="evenodd" d="M7.33043 2.00049H16.6694C20.0704 2.00049 21.9904 3.92949 22.0004 7.33049V16.6705C22.0004 20.0705 20.0704 22.0005 16.6694 22.0005H7.33043C3.92943 22.0005 2.00043 20.0705 2.00043 16.6705V7.33049C2.00043 3.92949 3.92943 2.00049 7.33043 2.00049ZM12.0494 17.8605C12.4804 17.8605 12.8394 17.5405 12.8794 17.1105V6.92049C12.9194 6.61049 12.7704 6.29949 12.5004 6.13049C12.2194 5.96049 11.8794 5.96049 11.6104 6.13049C11.3394 6.29949 11.1904 6.61049 11.2194 6.92049V17.1105C11.2704 17.5405 11.6294 17.8605 12.0494 17.8605ZM16.6504 17.8605C17.0704 17.8605 17.4294 17.5405 17.4804 17.1105V13.8305C17.5094 13.5095 17.3604 13.2105 17.0894 13.0405C16.8204 12.8705 16.4804 12.8705 16.2004 13.0405C15.9294 13.2105 15.7804 13.5095 15.8204 13.8305V17.1105C15.8604 17.5405 16.2194 17.8605 16.6504 17.8605ZM8.21943 17.1105C8.17943 17.5405 7.82043 17.8605 7.38943 17.8605C6.95943 17.8605 6.59943 17.5405 6.56043 17.1105V10.2005C6.53043 9.88949 6.67943 9.58049 6.95043 9.41049C7.21943 9.24049 7.56043 9.24049 7.83043 9.41049C8.09943 9.58049 8.25043 9.88949 8.21943 10.2005V17.1105Z" fill="white"/>
</svg>
